<?xml version="1.0" encoding="UTF-8" standalone="no"?>
<svg
   version="1.0"
   width="1257pt"
   height="1280pt"
   viewBox="0 0 1257 1280"
   preserveAspectRatio="xMidYMid"
   id="svg4"
   sodipodi:docname="circuit_package.svg"
   xmlns:inkscape="http://www.inkscape.org/namespaces/inkscape"
   xmlns:sodipodi="http://sodipodi.sourceforge.net/DTD/sodipodi-0.dtd"
   xmlns="http://www.w3.org/2000/svg"
   xmlns:svg="http://www.w3.org/2000/svg">
  <defs
     id="defs4" />
  <sodipodi:namedview
     id="namedview4"
     pagecolor="#ffffff"
     bordercolor="#000000"
     borderopacity="0.25"
     inkscape:showpageshadow="2"
     inkscape:pageopacity="0.0"
     inkscape:pagecheckerboard="0"
     inkscape:deskcolor="#d1d1d1"
     inkscape:document-units="pt" />
  <metadata
     id="metadata1">&#10;Created by potrace 1.15, written by Peter Selinger 2001-2017&#10;</metadata>
  <g
     transform="matrix(0.1,0,0,-0.1,0,1280)"
     fill="#000000"
     stroke="none"
     id="g4">
    <path
       d="m 7484,12789 c -67,-19 -123,-121 -109,-198 15,-81 61,-135 125,-148 l 30,-6 -2,-2120 -3,-2121 -47,3 -48,3 v -166 -166 h -195 -195 l -2,163 -3,162 -55,1 -55,1 -3,1128 c -2,1114 -2,1127 18,1152 27,35 43,99 35,142 -10,57 -50,116 -91,136 -49,23 -148,17 -186,-10 -65,-48 -90,-154 -55,-236 20,-50 76,-90 132,-97 l 45,-5 -2,-1104 -3,-1105 -85,-2 -85,-1 -3,-162 -2,-163 h -195 -194 v 163 162 h -83 -83 l -5,720 -5,720 -542,3 -543,2 v 755 755 l 28,42 c 23,36 27,52 27,113 0,63 -3,76 -28,108 -38,50 -75,67 -145,67 -45,0 -67,-6 -93,-23 -67,-44 -98,-153 -65,-230 17,-41 76,-93 115,-102 l 31,-7 v -789 -789 h 555 555 v -672 -673 h -52 -53 l -3,-162 -2,-163 h -195 -195 l -2,163 -3,162 h -48 -47 v 418 417 h -633 -634 l -24,26 c -37,40 -73,54 -137,54 -45,0 -67,-5 -93,-23 -110,-74 -104,-253 11,-314 109,-58 238,3 257,122 l 6,35 h 553 554 l -2,-366 -3,-367 -70,-1 -70,-1 -3,-162 -2,-163 h -195 -195 l -2,163 -3,162 h -30 l -30,1 -3,182 -2,182 H 3527 2435 l -50,26 c -123,63 -255,-19 -255,-159 0,-62 19,-105 63,-144 93,-82 246,-32 279,91 l 12,46 h 1003 1004 l -3,-111 -3,-111 -95,-1 -95,-2 -3,-162 -2,-163 h -240 -240 v -345 -345 h -165 -165 v -40 -40 H 2442 1403 l -33,41 c -94,117 -272,81 -310,-63 -21,-77 10,-159 79,-205 26,-17 48,-23 91,-23 67,0 111,25 149,83 l 24,37 h 1039 1038 v -90 -90 h 165 165 v -195 -195 h -165 -165 v -70 -70 H 1870 260 v 930 930 l 25,16 c 41,27 68,96 63,165 -5,62 -23,97 -69,132 -56,41 -152,41 -208,0 -58,-42 -85,-139 -60,-214 13,-38 63,-96 91,-105 17,-5 18,-51 20,-997 l 3,-992 1677,-3 1678,-2 v -60 -60 h 165 165 v -195 -195 h -164 -165 l -3,-47 -3,-48 -1037,-3 -1036,-2 -31,-39 -31,-39 v -740 -740 l -35,-6 c -110,-21 -168,-180 -101,-278 35,-51 70,-71 134,-76 100,-7 158,35 184,133 13,50 0,125 -28,156 -12,13 -14,125 -14,753 0,489 -3,744 -10,757 -11,19 4,19 1000,19 h 1010 v -95 -95 h 165 165 v -285 -285 h 300 300 v -165 -165 h 40 40 v -779 c 0,-772 0,-779 -21,-805 l -20,-26 h -657 l -657,1 -20,31 c -30,48 -78,71 -145,71 -104,0 -173,-71 -174,-178 -1,-197 249,-255 334,-78 l 25,53 h 674 673 l 59,51 59,51 v 804 804 h 90 90 v 165 165 h 195 195 v -161 c 0,-152 1,-161 20,-166 20,-5 20,-14 20,-1818 V 691 l -26,-20 c -26,-21 -36,-21 -550,-21 -330,0 -524,4 -524,10 0,18 -65,83 -97,96 -80,34 -178,2 -221,-71 -33,-58 -28,-157 11,-209 41,-53 78,-69 151,-64 74,4 116,30 143,88 l 18,39 541,1 h 541 l 74,53 74,53 3,1837 2,1836 108,3 107,3 3,163 2,162 h 195 195 v -165 -165 h 50 50 V 2800 1281 l -42,-12 c -110,-29 -154,-161 -94,-277 32,-62 117,-93 197,-72 116,31 163,186 88,291 -18,26 -19,71 -19,1568 v 1541 h 80 80 v 165 165 h 195 195 v -165 -165 h 80 80 V 2325 c 0,-1961 0,-1994 -19,-2005 -13,-6 -241,-10 -671,-10 -647,0 -651,0 -679,21 -78,57 -194,37 -255,-44 -32,-43 -34,-150 -4,-202 41,-71 143,-104 221,-71 44,18 95,78 103,121 l 6,35 h 650 651 l 68,56 69,56 v 2019 2019 h 45 45 v 165 165 h 195 195 l 2,-163 3,-162 h 195 195 l 3,163 2,162 h 195 195 v -165 -165 h 195 195 v 165 165 h 195 195 l 2,-162 3,-163 192,-3 193,-2 2,162 3,163 393,3 392,2 v 490 490 h 160 160 v 60 60 h 660 660 v -770 -770 l -39,-24 c -77,-49 -103,-161 -58,-247 58,-109 218,-122 293,-23 26,34 29,45 29,114 0,69 -3,80 -29,114 -16,21 -44,44 -62,52 l -34,14 -2,838 -3,837 -707,3 -708,2 v 68 67 l -160,-3 -160,-3 v 201 200 h 160 159 l 3,88 3,87 801,3 801,2 18,-41 c 61,-134 254,-130 316,6 65,143 -52,291 -201,255 -44,-11 -110,-59 -110,-81 0,-5 -344,-8 -812,-7 l -813,3 -3,38 -3,37 h -160 -159 v 530 530 h -450 -450 l -2,163 c -2,123 -6,161 -15,160 -10,-2 -13,184 -13,907 v 910 h 900 899 l 19,-43 c 28,-63 72,-91 152,-95 55,-3 70,0 99,20 62,42 76,70 76,156 0,90 -21,129 -85,162 -70,36 -149,24 -205,-31 l -31,-29 -964,-2 -965,-3 -3,-975 -2,-975 -125,3 -125,3 v -165 -166 h -197 -198 v 163 162 l -45,1 -45,1 -3,1581 -2,1582 727,2 727,3 -3,446 -3,446 34,24 c 46,33 65,58 78,106 31,109 -40,220 -148,231 -65,6 -114,-11 -151,-53 -79,-90 -56,-233 46,-287 l 43,-23 v -398 -399 l -740,3 -740,2 -3,-1632 -2,-1633 -80,-1 -80,-2 -3,-162 -2,-163 h -195 -195 l -2,163 -3,162 -73,1 -72,2 v 2137 c 0,2120 0,2137 20,2165 31,44 44,117 31,168 -28,103 -126,153 -237,121 z"
       id="path1"
       style="fill:#c6c6c6;fill-opacity:1" />
    <path
       d="m 7670,4298 c 0,-2 -1,-621 -3,-1377 l -2,-1374 -44,-13 c -80,-23 -123,-83 -124,-173 0,-77 32,-134 95,-167 39,-20 122,-18 167,6 98,49 120,206 41,287 l -30,31 -2,1388 -3,1389 -47,3 c -27,2 -48,2 -48,0 z"
       id="path2"
       style="fill:#c4c4c4;fill-opacity:1" />
    <path
       d="M 8510,2775 V 1250 h 873 l 872,-1 20,-41 c 31,-65 63,-83 150,-83 59,0 79,4 102,21 104,77 95,255 -17,312 -25,12 -62,22 -85,22 -51,-1 -119,-31 -140,-64 l -17,-26 h -809 -809 l -2,1453 -3,1452 -67,3 -68,3 z"
       id="path3"
       style="fill:#c4c4c4;fill-opacity:1" />
    <path
       d="m 9255,4288 c -3,-7 -4,-495 -3,-1083 l 3,-1070 932,-5 933,-5 22,-45 c 33,-65 76,-90 153,-90 68,0 110,21 149,73 32,43 34,150 4,202 -41,71 -143,104 -221,71 -32,-13 -97,-78 -97,-96 0,-6 -323,-10 -885,-10 h -885 l -2,1033 -3,1032 -48,3 c -32,2 -49,-1 -52,-10 z"
       id="path4"
       style="fill:#c4c4c4;fill-opacity:1" />
  </g>
</svg>
